<svg xmlns="http://www.w3.org/2000/svg">
  <symbol id="azure-devops" fill="currentColor" viewBox="0 0 256 256">
    <path
      d="M193.412 58.029l62.586-11.421v157.685l.005.001-62.588 51.604-.004-.001-.001.001v-.001l-96.473-32.233V256L25.94 172.124l167.47 23.417V58.03L25.938 89.904v82.22L0 167.306V94.841l25.938-33.88 87.979-34.394V0l79.495 58.029z"/>
  </symbol>
  <symbol id="book" fill="currentColor" viewBox="0 0 24 24">
    <path fill-rule="evenodd"
          d="M0 3.75A.75.75 0 01.75 3h7.497c1.566 0 2.945.8 3.751 2.014A4.496 4.496 0 0115.75 3h7.5a.75.75 0 01.75.75v15.063a.75.75 0 01-.755.75l-7.682-.052a3 3 0 00-2.142.878l-.89.891a.75.75 0 01-1.061 0l-.902-.901a3 3 0 00-2.121-.879H.75a.75.75 0 01-.75-.75v-15zm11.247 3.747a3 3 0 00-3-2.997H1.5V18h6.947a4.5 4.5 0 012.803.98l-.003-11.483zm1.503 11.485V7.5a3 3 0 013-3h6.75v13.558l-6.927-.047a4.5 4.5 0 00-2.823.971z"/>
  </symbol>
  <symbol id="bug" fill="currentColor" viewBox="0 0 100 100">
    <g transform="translate(50 50) rotate(45) translate(-50 -50)">
      <path d="M36.801 6.22a1.997 1.995 0 00-1.622 2.929l3.838 7.666c-.145.133-.3.267-.437.405-2.653 2.649-4.181 6.13-4.181 9.971 0 1.118.156 2.194.405 3.241-2.38 2.163-4.507 4.8-6.24 7.79l-8.206-4.113 2.558-9.38a1.997 1.995 0 00-2.028-2.555 1.997 1.995 0 00-1.84 1.496l-2.996 10.969a1.997 1.995 0 001.03 2.306l9.672 4.83a33.57 33.57 0 00-2.715 11.342H10.997a1.997 1.995 0 00-.187 0 2 1.996 0 10.187 3.989h13.011c.218 4.673 1.237 9.06 2.933 12.963h-7.956a1.997 1.995 0 00-.188 0 1.997 1.995 0 00-1.622 2.804l8.986 19.943a1.997 1.995 0 103.62-1.62l-7.739-17.138h6.99c1.552 2.486 3.438 4.692 5.648 6.512a1.997 1.995 0 002.59 0l1.56-1.34c.883 1.658 1.927 3.321 3.4 4.737 1.853 1.779 4.468 3.054 7.708 3.054 3.239 0 5.854-1.275 7.707-3.054 1.473-1.416 2.517-3.08 3.4-4.737l1.56 1.34a1.997 1.995 0 002.59 0c2.21-1.82 4.096-4.026 5.648-6.512h6.99l-7.739 17.138a1.997 1.995 0 103.62 1.62L82.7 72.873a1.997 1.995 0 00-1.81-2.804h-7.956c1.697-3.904 2.715-8.29 2.933-12.963h13.011a1.997 1.995 0 100-3.989H75.836a33.57 33.57 0 00-2.715-11.342l9.673-4.83a1.997 1.995 0 001.03-2.306L80.827 23.67a1.997 1.995 0 00-2.09-1.496 1.997 1.995 0 00-1.78 2.556l2.56 9.379-8.207 4.113c-1.733-2.99-3.86-5.627-6.24-7.79.249-1.047.405-2.124.405-3.24 0-3.842-1.56-7.323-4.212-9.972-.13-.13-.27-.249-.406-.374l3.838-7.697a1.997 1.995 0 00-1.872-2.93 1.997 1.995 0 00-1.685 1.123l-3.588 7.167a16.457 16.457 0 00-7.613-1.839c-2.845 0-5.423.703-7.614 1.839l-3.588-7.167A1.997 1.995 0 0036.8 6.22zm13.137 9.566c2.473 0 4.975 1.012 7.02 3.054 2.045 2.043 3.401 5.033 3.401 8.351 0 3.318-1.356 6.309-3.4 8.351-2.046 2.043-4.548 3.054-7.021 3.054-2.474 0-4.976-1.011-7.021-3.054-2.045-2.042-3.432-5.033-3.432-8.35 0-3.319 1.387-6.31 3.432-8.352 2.045-2.042 4.547-3.054 7.02-3.054zM36.427 34.39c.605 1.004 1.305 1.959 2.153 2.805 2.265 2.262 5.536 3.974 9.36 4.425v24.524L36.085 76.27c-5.031-4.864-8.113-12.368-8.113-21.158 0-8.254 3.584-15.757 8.456-20.723zm27.021 0c4.872 4.966 8.456 12.47 8.456 20.723 0 8.79-3.082 16.294-8.113 21.158L51.934 66.143V41.619c3.834-.445 7.059-2.157 9.33-4.425a14.701 14.701 0 002.184-2.805zm-13.51 35.337l7.987 6.824c-.911 1.78-1.885 3.424-3.057 4.55-1.263 1.212-2.655 1.932-4.93 1.932-2.276 0-3.668-.72-4.93-1.932-1.173-1.126-2.147-2.77-3.058-4.55l7.988-6.824z"/>
    </g>
  </symbol>
  <symbol id="configuration-variant" fill="currentColor" viewBox="0 0 510 510">
    <path
      d="M130.122 165.707h101.614l83.236 211.052h133.126l-25.75 25.748c-6.332 6.332-6.332 16.628 0 22.96 6.331 6.331 16.624 6.331 22.955 0l64.941-64.941-64.941-64.941c-6.331-6.332-16.624-6.332-22.955 0-6.332 6.332-6.332 16.628 0 22.959l25.75 25.748H337.084L266.64 165.707h181.458l-25.75 25.748c-6.332 6.332-6.332 16.624 0 22.956 6.331 6.331 16.624 6.331 22.955 0l64.941-64.937-64.941-64.941c-6.331-6.331-16.624-6.331-22.955 0-6.332 6.332-6.332 16.624 0 22.956l25.748 25.748H130.122v32.47zm-32.47 0v-32.47H65.185v32.47h32.467zm-64.937 0v-32.47H.244v32.47h32.471z"
      fill="currentColor"/>
  </symbol>
  <symbol id="download" fill="currentColor" viewBox="0 0 72 72">
    <path d="M64 27v28H8V27H0v36h72V27h-8z"/>
    <path d="M32.1 6.7h8v33.6h-8z"/>
    <path d="M48 35.9L36 49.6 24 36h24z"/>
  </symbol>
  <symbol id="gear" fill="currentColor" viewBox="0 0 24 24">
    <path fill-rule="evenodd"
          d="M11.31 2.525a9.648 9.648 0 011.38 0c.055.004.135.05.162.16l.351 1.45c.153.628.626 1.08 1.173 1.278.205.074.405.157.6.249a1.832 1.832 0 001.733-.074l1.275-.776c.097-.06.186-.036.228 0 .348.302.674.628.976.976.036.042.06.13 0 .228l-.776 1.274a1.832 1.832 0 00-.074 1.734c.092.195.175.395.248.6.198.547.652 1.02 1.278 1.172l1.45.353c.111.026.157.106.161.161a9.653 9.653 0 010 1.38c-.004.055-.05.135-.16.162l-1.45.351a1.833 1.833 0 00-1.278 1.173 6.926 6.926 0 01-.25.6 1.832 1.832 0 00.075 1.733l.776 1.275c.06.097.036.186 0 .228a9.555 9.555 0 01-.976.976c-.042.036-.13.06-.228 0l-1.275-.776a1.832 1.832 0 00-1.733-.074 6.926 6.926 0 01-.6.248 1.833 1.833 0 00-1.172 1.278l-.353 1.45c-.026.111-.106.157-.161.161a9.653 9.653 0 01-1.38 0c-.055-.004-.135-.05-.162-.16l-.351-1.45a1.833 1.833 0 00-1.173-1.278 6.928 6.928 0 01-.6-.25 1.832 1.832 0 00-1.734.075l-1.274.776c-.097.06-.186.036-.228 0a9.56 9.56 0 01-.976-.976c-.036-.042-.06-.13 0-.228l.776-1.275a1.832 1.832 0 00.074-1.733 6.948 6.948 0 01-.249-.6 1.833 1.833 0 00-1.277-1.172l-1.45-.353c-.111-.026-.157-.106-.161-.161a9.648 9.648 0 010-1.38c.004-.055.05-.135.16-.162l1.45-.351a1.833 1.833 0 001.278-1.173 6.95 6.95 0 01.249-.6 1.832 1.832 0 00-.074-1.734l-.776-1.274c-.06-.097-.036-.186 0-.228.302-.348.628-.674.976-.976.042-.036.13-.06.228 0l1.274.776a1.832 1.832 0 001.734.074 6.95 6.95 0 01.6-.249 1.833 1.833 0 001.172-1.277l.353-1.45c.026-.111.106-.157.161-.161zM12 1c-.268 0-.534.01-.797.028-.763.055-1.345.617-1.512 1.304l-.352 1.45c-.02.078-.09.172-.225.22a8.45 8.45 0 00-.728.303c-.13.06-.246.044-.315.002l-1.274-.776c-.604-.368-1.412-.354-1.99.147-.403.348-.78.726-1.129 1.128-.5.579-.515 1.387-.147 1.99l.776 1.275c.042.069.059.185-.002.315a8.45 8.45 0 00-.302.728c-.05.135-.143.206-.221.225l-1.45.352c-.687.167-1.249.749-1.304 1.512a11.149 11.149 0 000 1.594c.055.763.617 1.345 1.304 1.512l1.45.352c.078.02.172.09.22.225.09.248.191.491.303.729.06.129.044.245.002.314l-.776 1.274c-.368.604-.354 1.412.147 1.99.348.403.726.78 1.128 1.129.579.5 1.387.515 1.99.147l1.275-.776c.069-.042.185-.059.315.002.237.112.48.213.728.302.135.05.206.143.225.221l.352 1.45c.167.687.749 1.249 1.512 1.303a11.125 11.125 0 001.594 0c.763-.054 1.345-.616 1.512-1.303l.352-1.45c.02-.078.09-.172.225-.22.248-.09.491-.191.729-.303.129-.06.245-.044.314-.002l1.274.776c.604.368 1.412.354 1.99-.147.403-.348.78-.726 1.129-1.128.5-.579.515-1.387.147-1.99l-.776-1.275c-.042-.069-.059-.185.002-.315.112-.237.213-.48.302-.728.05-.135.143-.206.221-.225l1.45-.352c.687-.167 1.249-.749 1.303-1.512a11.125 11.125 0 000-1.594c-.054-.763-.616-1.345-1.303-1.512l-1.45-.352c-.078-.02-.172-.09-.22-.225a8.469 8.469 0 00-.303-.728c-.06-.13-.044-.246-.002-.315l.776-1.274c.368-.604.354-1.412-.147-1.99-.348-.403-.726-.78-1.128-1.129-.579-.5-1.387-.515-1.99-.147l-1.275.776c-.069.042-.185.059-.315-.002a8.465 8.465 0 00-.728-.302c-.135-.05-.206-.143-.225-.221l-.352-1.45c-.167-.687-.749-1.249-1.512-1.304A11.149 11.149 0 0012 1zm2.5 11a2.5 2.5 0 11-5 0 2.5 2.5 0 015 0zm1.5 0a4 4 0 11-8 0 4 4 0 018 0z"/>
  </symbol>
  <symbol id="github" fill="currentColor" viewBox="0 0 33 33">
    <path
      d="M16.288 0C7.293 0 0 7.293 0 16.29c0 7.197 4.667 13.302 11.14 15.457.815.149 1.112-.354 1.112-.786 0-.386-.014-1.411-.022-2.77-4.531.984-5.487-2.184-5.487-2.184-.741-1.881-1.809-2.382-1.809-2.382-1.479-1.011.112-.991.112-.991 1.635.116 2.495 1.679 2.495 1.679 1.453 2.489 3.813 1.77 4.741 1.354.148-1.053.568-1.771 1.034-2.178-3.617-.411-7.42-1.809-7.42-8.051 0-1.778.635-3.232 1.677-4.371-.168-.412-.727-2.068.159-4.311 0 0 1.368-.438 4.48 1.67a15.602 15.602 0 014.078-.548c1.383.006 2.777.187 4.078.548 3.11-2.108 4.475-1.67 4.475-1.67.889 2.243.33 3.899.162 4.311 1.044 1.139 1.675 2.593 1.675 4.371 0 6.258-3.809 7.635-7.438 8.038.585.503 1.106 1.497 1.106 3.017 0 2.177-.02 3.934-.02 4.468 0 .436.293.943 1.12.784 6.468-2.159 11.131-8.26 11.131-15.455C32.579 7.293 25.285 0 16.288 0"/>
  </symbol>
  <symbol id="group" fill="currentColor" viewBox="0 0 24 24">
    <path
      d="M21.41 17.91l-9 4A1.06 1.06 0 0 1 12 22a1 1 0 0 1-.41-.09l-9-4a1 1 0 0 1 .82-1.82L12 19.91l8.59-3.82a1 1 0 0 1 .82 1.82zm.5-6.32a1 1 0 0 0-1.32-.5L12 14.91l-8.59-3.82a1 1 0 0 0-.82 1.82l9 4A1 1 0 0 0 12 17a1.06 1.06 0 0 0 .4-.08l9-4a1 1 0 0 0 .51-1.33zm-.5-3.68l-9 4A1.06 1.06 0 0 1 12 12a1 1 0 0 1-.41-.09l-9-4a1 1 0 0 1 0-1.82l9-4A1.06 1.06 0 0 1 12 2a1 1 0 0 1 .41.09l9 4a.94.94 0 0 1 .5.5 1 1 0 0 1-.5 1.32zM18.54 7L12 4.09 5.46 7 12 9.91z"/>
  </symbol>
  <symbol id="http" fill="currentColor" viewBox="0 0 128 128">
    <path
      d="M-.352 82.419V45.581h7.438V60.08H21.66V45.581h7.438v36.838H21.66V66.312H7.086v16.107H-.352zM45.079 82.419V51.813H34.148v-6.232h29.274v6.232H52.517v30.606h-7.438zM76.514 82.419V51.813H65.583v-6.232h29.274v6.232H83.951v30.606h-7.437zM99.656 82.419V45.581h11.936c4.523 0 7.471.185 8.845.553 2.11.553 3.878 1.755 5.302 3.606 1.423 1.851 2.135 4.242 2.135 7.174 0 2.262-.41 4.163-1.231 5.704-.821 1.541-1.864 2.751-3.128 3.631-1.265.879-2.551 1.462-3.857 1.746-1.776.352-4.347.528-7.715.528h-4.849v13.896h-7.438zm7.438-30.606v10.453h4.071c2.931 0 4.891-.192 5.879-.578.989-.385 1.763-.988 2.325-1.809.561-.821.841-1.776.841-2.864 0-1.341-.393-2.446-1.181-3.317-.787-.871-1.784-1.416-2.99-1.634-.888-.167-2.672-.251-5.352-.251h-3.593z"/>
  </symbol>
  <symbol id="jenkins" fill="currentColor" viewBox="0 0 128 128">
    <path
      d="M127.15 104.133l-19.926-14.012c7.85-9.503 12.775-23.071 12.775-38.119 0-28.671-17.863-51.997-39.82-51.997a30.814 30.814 0 0 0-6.404.681 1.98 1.98 0 0 0-.518-.15C50.843-2.42 40.509 7.686 38.21 10.353c-9.702 2.47-12.73 10.147-13.079 14.684-.441.123-.81.23-1.08.31-12.501 4.261-6.903 24.066-6.288 26.11a20.664 20.664 0 0 0-2.772 10.545C14.99 71.375 20.72 79 27.762 79c.234 0 .465-.017.697-.033a51.953 51.953 0 0 0 5.413 12L1.409 111.314a3.057 3.057 0 0 0-1.011 4.094l6.895 11.613a2 2 0 1 0 3.44-2.042l-6.4-10.777 9.702-6.08 13.318 19.025a2 2 0 0 0 3.278-2.294l-13.202-18.858L26 100.622a41.22 41.22 0 0 0 34.653 18.533q.564 0 1.14-.013a1.963 1.963 0 0 0 .214-.027l-.014 4.918a3.917 3.917 0 0 0 1.873 3.357 4.014 4.014 0 0 0 3.93.182l10.534-5.252a7.496 7.496 0 0 0 4.561 1.875c.145.008.288.012.431.012a7.473 7.473 0 0 0 4.962-1.87c.168-.148.326-.304.479-.465l11.43 5.7a4.012 4.012 0 0 0 3.932-.182 3.917 3.917 0 0 0 1.872-3.357l-.017-6.147a22.458 22.458 0 0 0 13.411-14.318l4.186 2.944-7.127 18.777a2 2 0 1 0 3.74 1.42l7.679-20.23a1.999 1.999 0 0 0-.72-2.346zm-87.383-90.04a2.024 2.024 0 0 0 1.177-.766c.315-.423 7.037-9.164 23.938-9.326-7.758 4.231-14.278 11.578-18.64 20.838-4.082-2.762-11.631-1.907-16.909-.816.61-2.924 2.771-8.23 10.434-9.93zm21.929 101.05q-.52.013-1.032.012A37.216 37.216 0 0 1 29.39 98.498l6.73-4.217c5.164 6.96 13.285 13.664 25.706 14.712.057.004.115.006.17.006.014 0 .027-.003.04-.003l-.017 6.165a1.794 1.794 0 0 0-.323-.018zm2.239-10.55a4.004 4.004 0 0 0-.872.726 1.98 1.98 0 0 0-.9-.313c-21.175-1.785-28.304-21.652-29.866-27.095a11.856 11.856 0 0 0 2.458-1.653 2 2 0 1 0-2.62-3.023A6.687 6.687 0 0 1 27.763 75c-4.754 0-8.771-5.953-8.771-13s4.017-12.999 8.771-12.999a7.365 7.365 0 0 1 5.663 3.123 2 2 0 0 0 3.135-2.485 11.261 11.261 0 0 0-8.798-4.638 10.527 10.527 0 0 0-6.817 2.65c-1.109-5.199-2.545-16.153 4.326-18.495 6.478-1.936 16.724-3.397 19.229-.586.034.038.074.066.11.1a64.857 64.857 0 0 0-4.25 23.331 66.562 66.562 0 0 0 2.105 16.75h-4.473a2 2 0 1 0 0 4h6.967a2 2 0 0 0 2-2.037l-.01-.53a2.032 2.032 0 0 0-.082-.531 62.16 62.16 0 0 1-2.507-17.652c0-26.466 16.069-47.998 35.82-47.998 12.221 0 23.028 8.25 29.495 20.807a12.877 12.877 0 0 0-10.72.812 2 2 0 0 0 2.085 3.413c.234-.144 5.762-3.41 11.466 2.309A61.514 61.514 0 0 1 116 52.002c0 26.466-16.069 47.998-35.82 47.998a29.425 29.425 0 0 1-19.099-7.41 2 2 0 0 0-2.588 3.051A33.374 33.374 0 0 0 80.18 104c9.163 0 17.606-4.073 24.342-10.89l4.598 3.234c-.017.049-.04.094-.054.145a17.45 17.45 0 0 1-5.327 7.936 4 4 0 0 0-3.617.015l-12.489 6.35a7.517 7.517 0 0 0-8.044-.392l-11.717-5.958a4.01 4.01 0 0 0-3.936.153zm2.06 19.451l.063-16.039 10.61 5.396a7.204 7.204 0 0 0-.514 5.55zm20.785-7.039a3.328 3.328 0 0 1-1.14 2.33 3.5 3.5 0 0 1-2.525.866 3.394 3.394 0 0 1 .177-6.785c.066 0 .133.002.2.006a3.5 3.5 0 0 1 2.414 1.142 3.325 3.325 0 0 1 .874 2.44zm3.841 1.324a7.406 7.406 0 0 0 .154-1.102 7.283 7.283 0 0 0-.576-3.266l11.754-6.007.027 16.038zm15.348-4.778l-.016-5.61c0-.044-.007-.087-.009-.13a22.179 22.179 0 0 0 6.579-9.074l3.41 2.399a18.496 18.496 0 0 1-9.964 12.415z"/>
    <path
      d="M79.996 69.219a6.275 6.275 0 0 0 2.69 5.353 10.044 10.044 0 0 0 5.665 1.422 31.612 31.612 0 0 0 9.656-1.87c4.814-1.526 7.481-3.773 7.927-6.68.678-4.42-4.201-7.982-4.76-8.374a2.079 2.079 0 0 0-.204-.126c-7.402-3.963-9.935-17.172-9.96-17.306a2 2 0 0 0-3.934.727c.114.617 2.88 15.105 11.888 20.041 1.103.804 3.25 2.907 3.016 4.432-.188 1.223-2.076 2.489-5.266 3.502-3.307 1.21-9.431 2.534-11.772.93a2.31 2.31 0 0 1-.946-2.128 2 2 0 0 0-4 .077zM61.196 32.101c1.884-1.221 4.325-1.422 7.257-.595a2 2 0 0 0 1.084-3.85c-4.087-1.15-7.626-.784-10.516 1.089-4.96 3.215-5.966 9.692-6.006 9.967a2 2 0 1 0 3.958.582c.007-.05.819-4.987 4.223-7.193zM69.995 46.148a2 2 0 0 0-2.604 1.104l-1.25 3.088a2 2 0 0 0 1.324 2.678 24.595 24.595 0 0 0 6.498.977 12.123 12.123 0 0 0 5.624-1.197 4.354 4.354 0 0 0 2.254-2.595 3.765 3.765 0 0 0-.356-2.96l-4.694-8.231a2 2 0 0 0-3.474 1.981l4.63 8.122a.992.992 0 0 1-.196.128c-.987.51-3.124 1.154-7.025.43l.373-.92a2 2 0 0 0-1.104-2.605zM99.305 51.655a19.348 19.348 0 0 0 6.673 1.344 10.006 10.006 0 0 0 5.832-1.67 5.1 5.1 0 0 0 1.781-6.164 2.009 2.009 0 0 0-.16-.304l-5.78-8.944a2 2 0 0 0-3.36 2.171l5.662 8.763a1.07 1.07 0 0 1-.42 1.19c-1.157.802-3.27 1.456-6.952.468l.298-.829a2 2 0 0 0-3.764-1.355l-1 2.776a2 2 0 0 0 1.19 2.554zM88.668 78.8c-8.383 1.391-13.92-4.833-14.16-5.107a2 2 0 0 0-3.03 2.612c.261.302 5.876 6.699 14.743 6.699a18.869 18.869 0 0 0 3.104-.26 2 2 0 1 0-.657-3.945zM105.485 74.692c-1.219 1.409-4.509 2.655-8.8 3.333a2 2 0 0 0 .31 3.976 2.03 2.03 0 0 0 .315-.025c3.785-.599 8.801-1.894 11.2-4.666a2 2 0 0 0-3.025-2.618zM88.688 88.596c-14.958 2.334-19.716-6.142-19.923-6.525a2 2 0 0 0-3.547 1.848c.214.415 4.872 9.086 18.453 9.086a36.565 36.565 0 0 0 5.634-.457 2 2 0 1 0-.617-3.952zM23.902 56.318a2 2 0 0 0 1.162 3.828 3.45 3.45 0 0 1 4.525 2.474 2 2 0 0 0 3.805-1.237 7.464 7.464 0 0 0-9.491-5.065z"/>
  </symbol>
  <symbol id="ping" fill="currentColor" viewBox="0 0 64 48">
    <g transform="translate(32 24) scale(-1 1) translate(-32 -24)">
      <path
        d="M20 26a2 2 0 0 0 1.93-1.474l4.077-14.9 10.063 36.9c.525 1.923 3.232 1.98 3.836.08L46.45 26H62a2 2 0 0 0 0-4H45a2 2 0 0 0-1.906 1.394l-4.942 15.56L27.93 1.475c-.536-1.965-3.324-1.965-3.86 0L18.5 22H2a2 2 0 0 0 0 4h18z"
        stroke="currentColor" stroke-width="0.3"/>
    </g>
  </symbol>
  <symbol id="pingdom" fill="currentColor" viewBox="0 0 128 128">
    <path
      d="M60.938 60.755l1.102-.308a212.455 212.455 0 0 0 24.113-8.85 89.068 89.068 0 0 0 22.192-12.646A48.251 48.251 0 0 0 123.9 16.942a19.734 19.734 0 0 0 1.409-4.463c-10.788 14.749-53.557 16.289-53.557 16.289l10.096-9.261A140.85 140.85 0 0 0 0 46.082a77.044 77.044 0 0 1 43.41 19.419c5.791-1.796 11.711-3.079 17.528-4.695v-.051zM128 59.293a235.356 235.356 0 0 0-80.464 10.261 77.582 77.582 0 0 1 13.53 19.315C82.617 76.864 112.496 61.525 128 59.344v-.051zM63.782 95a77.006 77.006 0 0 1 4.869 20.521l37.593-38.657L63.782 95z"/>
  </symbol>
  <symbol id="port" fill="currentColor" viewBox="0 0 30 30">
    <g transform="translate(15 15) scale(1 -1) translate(-15 -15)">
      <path
        d="M19 27h-8c-.6 0-1-.4-1-1v-2H7.9c-.6 0-1-.4-1-1v-2.7H4.3c-.6 0-1-.4-1-1V4c0-.6.4-1 1-1h21.4c.6 0 1 .4 1 1v15.4c0 .6-.4 1-1 1h-2.6v2.7c0 .6-.4 1-1 1H20v2c0 .5-.5.9-1 .9zm-7-2h6v-2c0-.6.4-1 1-1h2.1v-2.7c0-.6.4-1 1-1h2.6V5H5.3v13.4h2.6c.6 0 1 .4 1 1v2.7H11c.6 0 1 .4 1 1V25z"/>
      <path
        d="M21.9 12.3c-.6 0-1-.4-1-1V7.9c0-.6.4-1 1-1s1 .4 1 1v3.4c0 .6-.4 1-1 1zM17.3 12.3c-.6 0-1-.4-1-1V7.9c0-.6.4-1 1-1s1 .4 1 1v3.4c0 .6-.4 1-1 1zM12.7 12.3c-.6 0-1-.4-1-1V7.9c0-.6.4-1 1-1s1 .4 1 1v3.4c0 .6-.4 1-1 1zM8.1 12.3c-.6 0-1-.4-1-1V7.9c0-.6.4-1 1-1s1 .4 1 1v3.4c0 .6-.4 1-1 1z"/>
    </g>
  </symbol>
  <symbol id="rocket" fill="currentColor" viewBox="0 0 24 24">
    <path fill-rule="evenodd"
          d="M20.322.75a10.75 10.75 0 00-7.373 2.926l-1.304 1.23A23.743 23.743 0 0010.103 6.5H5.066a1.75 1.75 0 00-1.5.85l-2.71 4.514a.75.75 0 00.49 1.12l4.571.963c.039.049.082.096.129.14L8.04 15.96l1.872 1.994c.044.047.091.09.14.129l.963 4.572a.75.75 0 001.12.488l4.514-2.709a1.75 1.75 0 00.85-1.5v-5.038a23.741 23.741 0 001.596-1.542l1.228-1.304a10.75 10.75 0 002.925-7.374V2.499A1.75 1.75 0 0021.498.75h-1.177zM16 15.112c-.333.248-.672.487-1.018.718l-3.393 2.262.678 3.223 3.612-2.167a.25.25 0 00.121-.214v-3.822zm-10.092-2.7L8.17 9.017c.23-.346.47-.685.717-1.017H5.066a.25.25 0 00-.214.121l-2.167 3.612 3.223.679zm8.07-7.644a9.25 9.25 0 016.344-2.518h1.177a.25.25 0 01.25.25v1.176a9.25 9.25 0 01-2.517 6.346l-1.228 1.303a22.248 22.248 0 01-3.854 3.257l-3.288 2.192-1.743-1.858a.764.764 0 00-.034-.034l-1.859-1.744 2.193-3.29a22.248 22.248 0 013.255-3.851l1.304-1.23zM17.5 8a1.5 1.5 0 11-3 0 1.5 1.5 0 013 0zm-11 13c.9-.9.9-2.6 0-3.5-.9-.9-2.6-.9-3.5 0-1.209 1.209-1.445 3.901-1.49 4.743a.232.232 0 00.247.247c.842-.045 3.534-.281 4.743-1.49z"/>
  </symbol>
  <symbol id="travis-ci" fill="currentColor" viewBox="0 0 256 253">
    <path
      d="M168.485 152.203c.309 8.564 4.89 8.5 10.338 8.3 7.338-.134 11.366-2.383 15.048-.61-.058-.205-1.208-3.643-6.29-3.045.59-1.272.841-2.994.662-5.359-.669-8.558-5.648-15.356-11.11-15.163-5.448.186-8.95 7.293-8.648 15.877zm8.135-10.441a2.777 2.777 0 012.833 2.737 2.79 2.79 0 01-2.73 2.84 2.797 2.797 0 01-2.84-2.75 2.78 2.78 0 012.737-2.827zm-82.936 20.284c.566.013 1.157 0 1.76-.013a46.5 46.5 0 001.607-.032c5.468-.052 9.998.462 9.927-8.109-.09-8.57-3.894-15.51-9.361-15.452-5.455.051-10.737 7.08-10.422 15.645.096 2.236.424 3.842.95 5.005-4.754 1.202-6.07 4.138-6.148 4.324 2.994-1.612 6.38-1.381 11.687-1.368zm4.697-18.215c1.542-.052 2.82 1.169 2.872 2.711a2.795 2.795 0 01-2.718 2.86 2.783 2.783 0 01-2.865-2.712 2.777 2.777 0 012.711-2.86zm12.831-91.333h15.33v-6.322h3.45v29.208h-5.21v16.34h26.837v-16.34h-5.217V46.176h3.457v6.322h15.343V30.852h-53.99v21.646z"/>
    <path
      d="M255.006 94.235a65.78 65.78 0 00-.527-5.532c-.129-.925-.264-1.85-.456-2.756-.18-.938-.36-1.806-.662-2.827l-.193-.72-.507-.405c-2.924-2.287-6.066-4.022-9.259-5.55-2.64-1.247-5.32-2.333-8.025-3.329-7.562-20.972-20.541-39.566-37.625-52.512C180.102 7.214 159.342.127 137.728.127c-21.626 0-42.38 7.087-60.036 20.477-13.447 10.19-24.338 23.888-32.055 39.482H45.6a124.275 124.275 0 00-5.57 13.03c-2.712.996-5.391 2.082-8.032 3.328-3.2 1.53-6.335 3.264-9.259 5.551l-.514.405-.192.72a30.131 30.131 0 00-.669 2.827c-.18.906-.327 1.831-.45 2.756-.186 1.317-.308 2.654-.417 3.99h.045a40.818 40.818 0 00-.11 1.549 69.644 69.644 0 00.322 11.102 69.809 69.809 0 002.056 10.942 58.402 58.402 0 001.793 5.333c.34.88.713 1.754 1.13 2.634.206.437.431.868.656 1.311l.366.649c.141.244.238.418.45.732l.366.579.591.302c.623.321 1.144.559 1.71.829l1.644.745c.302.122.598.25.912.379-7.498 6.926-15.645 15.928-22.693 27.056l-8.9 14.026 12.497-10.968c.219-.186 10.691-9.252 28.168-19.538l.244 2.01.636 5.07 3.2 26.002c.07.495.327.939.739 1.221l6.56 4.607c.115.366.224.733.334 1.112.154.52.295 1.034.456 1.554l1.497 4.517c3.283 10.21 7.935 19.417 13.595 27.506-.27.084-.546.16-.816.238-3.411-1.58-15.33-7.106-19.333-8.912l-8.372-3.758 4.954 7.729c.36.559 8.905 13.885 15.877 22.867 6.534 8.385 15.471 16.943 32.33 16.943a60.64 60.64 0 006.342-.36c5.031-.585 8.809-1.034 11.681-1.407 17.695 6.515 37.214 6.9 55.738-.11a81.021 81.021 0 0013.93-6.88c.09-.013.173-.04.25-.058 6.888-1.658 14.707-3.528 18.569-4.607a81.662 81.662 0 012.197-.546c5.378-1.227 14.366-3.322 19.153-12.908 4.825-9.676 12.703-24.493 12.78-24.64l3.688-6.895-7.164 3.117c-.392.167-9.477 4.13-14.2 6.605-.16.096-.366.18-.552.27 3.842-7.833 5.757-14.072 6.444-16.468l2.59-10.685 7.459-16.686s2.094-18.24 2.14-18.228l.732-6.978c.655-.276 4.639-.552 5.416-.86 1.112-.438 2.223-.868 3.335-1.35l1.638-.745c.579-.27 1.093-.508 1.716-.83l.59-.301.374-.578a7.99 7.99 0 00.443-.733l.36-.649c.25-.443.462-.874.661-1.31a47.28 47.28 0 001.144-2.635 62.508 62.508 0 001.78-5.333c.976-3.617 1.683-7.26 2.056-10.942.411-3.675.501-7.388.315-11.096zM84.779 139.256c.16-.11 6.862-4.504 17.804-9.856a474.045 474.045 0 0135.84-1.356c3.135 0 6.212.045 9.251.097-2.12 1.709-4.356 3.321-6.682 4.716l-7.729 4.677c-4.877.591-9.104 1.805-9.336 1.87a1.637 1.637 0 00-.404.173c-.38.219-.669.578-.797 1.003l-7.903 26.028-42.18 9.374-13.294-9.31-3.868-31.31c7.543-1.394 17.643-2.994 29.76-4.35a64.699 64.699 0 00-3.751 4.896l-7.216 10.358 10.505-7.01zm56.927 108.931c-6.959.463-14.026-.353-20.946-2.249.578-.115.996-.18 1.51-.237.565-.078 12.985-1.71 18.568-10.01l.527.012 1.388-.013c.919 0 1.754-.077 2.647-.115 2.12-.174 4.17-.482 6.207-.893.218.212.424.424.649.655 4.195 4.157 9.406 6.54 15.13 6.958-9.63 3.913-18.696 5.43-25.68 5.892zm.63-15.227c1.046-2.333 1.837-4.151 2.434-5.52a186.198 186.198 0 004.55 4.896c-1.37.206-2.719.38-4.049.489-.873.038-1.786.135-2.621.135h-.315zm-20.696-53.727l3.771-.848a1.755 1.755 0 001.298-1.208l7.878-25.913c1.362-.18 2.557-.276 3.591-.276 1.002 0 2.217.097 3.573.276l8.108 26.684c.206.681.79 1.176 1.484 1.253l3.007.34.771.084 51.8 5.892c.43.051.854-.071 1.207-.315l5.205-3.637 4.812-3.367 1.78-1.252c-.29 1.24-.61 2.473-.945 3.688a158.718 158.718 0 01-1.548 4.664c-2.127 6.053-4.51 11.546-7.106 16.506a35.78 35.78 0 01-2.275.077c-2.519 0-5.076-.205-7.91-.469-4.92-.456-12.714-1.349-15.169-1.625-2.14-1.703-9.406-7.466-15.44-12.227-.23-.18-.436-.373-.648-.54-1.06-.9-2.268-1.915-4.716-1.915-2.236 0-5.487.81-13.345 3.18 4.093-3.057 4.125-6.996 4.125-6.996s-5.821 5.423-15.215 6.618c-9.368 1.208-16.737-4.556-16.737-4.556.308 1.003.745 3.27 2.872 5.192-2.5-.29-5.198-.495-8.032-.495a60.38 60.38 0 00-3.052.077c-5.77.309-13.89 9.021-19.59 17.817-2.801.887-11.558 3.669-21.684 6.644-5.982-8.276-10.036-16.674-12.33-22.077-1.337-3.148-2.082-5.288-2.249-5.795v-.013c-.186-.514-.386-1.06-.559-1.607l2.429 1.697v.012l6.007 4.215 2.005 1.395c.302.212.668.32 1.015.32.128 0 .257-.012.392-.038l51.42-11.462zm31.958-38.653a1.783 1.783 0 00-1.208-1.183c-.263-.083-5.474-1.567-11.006-2.036l1.015-.078c.874-.064 15.401-1.837 32.756-7.825 19.217 1.471 34.907 3.83 45.637 5.782l-3.797 26.639-13.403 9.374-42.13-4.787-7.864-25.886zm92.49-35.885c-.47 3.431-2.024 10.113-2.024 10.113l-1.215.2c-.636-.174-6.56-1.71-16.763-3.598.328-.071.643-.142.951-.212a47.008 47.008 0 006.22-1.992c1.002-.43 2.004-.887 2.949-1.427.938-.546 1.857-1.15 2.576-1.966-10.216 3.341-31.328 1.825-50.096-.115-17.149-1.774-34.362-2.917-51.658-2.956-17.29.039-34.483 1.189-51.651 2.956-18.768 1.94-39.874 3.456-50.09.115.72.81 1.644 1.42 2.589 1.966.938.54 1.934.99 2.936 1.427a47.751 47.751 0 006.226 1.992c.745.173 1.504.34 2.262.475-9.31 1.767-14.7 3.168-15.305 3.335 0 0-2.146.347-2.615-1.298-.931-3.29-1.555-5.59-2.024-9.015a75.688 75.688 0 01-.642-10.305c.006-.566-.007-1.697-.007-1.697a52.42 52.42 0 01.193-3.47c.064-.854 3.206-3.59 5.905-5.146 2.917-1.696 5.982-3.225 9.104-4.645 3.09-1.465 13.107-3.592 19.147-4.684 6.04-1.105 27.64-3.97 29.26-4.575 1.613-.616 10.948-7.813 12.58-8.41-3.43.565-50.835 7.806-52.968 8.481 15.388-40.24 45.592-59.837 85.794-59.837 40.189 0 70.4 18.504 85.8 58.751-20.328-5.403-48.483-7.922-51.914-8.494 1.632.598 10.865 7.093 12.58 7.312 14.058 1.825 36.225 6.74 37.831 7.376 3.187 1.291 6.38 2.621 9.477 4.08 3.13 1.42 6.188 2.949 9.105 4.645 2.698 1.562 5.834 4.292 5.91 5.147.149 1.722.213 3.437.232 5.16.026 3.443-.212 6.9-.655 10.311z"/>
  </symbol>
</svg>
